<?xml version="1.0" standalone="no"?>
<!DOCTYPE svg PUBLIC "-//W3C//DTD SVG 1.1//EN" "http://www.w3.org/Graphics/SVG/1.1/DTD/svg11.dtd">
<svg xmlns="http://www.w3.org/2000/svg">
<metadata>Copyright (C) 2016 by original authors @ fontello.com</metadata>
<defs>
<font id="fm" horiz-adv-x="1000" >
<font-face font-family="fm" font-weight="400" font-stretch="normal" units-per-em="1000" ascent="850" descent="-150" />
<missing-glyph horiz-adv-x="1000" />
<glyph glyph-name="bottom-arrow" unicode="&#xe800;" d="M27 630c-16-10-27-35-27-66 0-44 30-80 231-280 166-164 244-231 269-231 25 0 103 67 269 231 201 202 231 236 231 280 0 49-33 83-80 83-11 0-109-89-220-199l-200-198-200 198c-111 110-211 199-223 199-13 0-35-8-50-17z" horiz-adv-x="1000" />

<glyph glyph-name="check" unicode="&#xe801;" d="M616 467l-263-275-130 130-129 128-42-31c-82-61-69-94 107-286 88-95 172-174 186-174 36 0 655 646 655 683 0 36-62 99-97 99-14 0-144-124-287-274z" horiz-adv-x="1000" />

<glyph glyph-name="export" unicode="&#xe802;" d="M353 747c-68-70-62-147 6-79 68 67 82 32 82-218 0-159 12-244 30-232 17 9 29 123 29 256 0 208 6 232 44 200 27-21 53-30 65-18 23 23-106 165-153 165-18 0-65-33-103-74z m-271-282c-44-24-53-74-53-294 0-256 3-265 77-292 41-17 212-29 382-29 394 0 424 23 424 324 0 167-12 217-59 264-62 62-235 83-235 30 0-15 26-30 61-30 139 0 174-50 174-250 0-262-24-279-382-279-159 0-309 9-336 17-38 15-47 65-47 248 0 244 12 264 165 264 41 0 65 12 56 30-24 38-162 35-227-3z" horiz-adv-x="912" />

<glyph glyph-name="facebook" unicode="&#xe803;" d="M497 831c-57-24-85-50-113-106-18-37-21-55-24-130l-2-89-58 0-58 0 0-105 0-106 59 0 58 0 0-222 0-223 114 0 113 0 0 223 0 222 80 0 82 0 4 77c4 41 6 89 6 105l0 29-86 0-86 0 0 61c0 37 4 65 9 71 7 6 36 9 82 9l71 0 6 49c3 27 4 71 2 99l-2 51-106 2c-96 2-109 0-151-17z m182-33c24-4 24-5 24-54l0-50-62 0c-54 0-64-3-84-19-22-19-22-20-24-117l-3-99 86 0 87 0 0-54 0-55-86 0-86 0 0-227 0-226-58 0-59 0 0 226 0 227-58 0-59 0 0 55 0 54 58 0 58 0 3 112c2 107 3 113 24 145 12 18 34 41 51 51 47 30 129 43 188 31z" horiz-adv-x="1000" />

<glyph glyph-name="google" unicode="&#xe804;" d="M240 831c-145-59-208-176-170-315 21-76 99-150 173-162 25-5 30-9 30-23 0-15-6-18-44-26-88-18-170-77-206-147-26-54-30-130-9-173 44-85 157-135 309-135 161 0 272 55 322 163 18 38 21 50 18 106-3 43-9 73-20 94-16 31-67 84-131 135l-31 25 50 48c46 46 78 96 78 127 0 11 8 13 59 13l59 0 0-63 0-62 78 0 78 0 0 62 0 63 58 0 59 0 0 78 0 78-62 0-63 0 0 61 0 62-111 5c-62 3-194 5-295 5-176 0-186-2-229-19z m484-111c-2-2-29-3-60-1l-57 2 58 62 58 62 2-61c2-33 1-62-1-64z m-138 56c-22-23-32-28-60-28-38 0-41-3-15-24 30-24 52-76 52-129 0-56-25-100-82-148-43-37-58-74-40-101 7-10 36-38 66-62 66-54 91-86 103-132 25-101-37-194-160-237-54-19-194-19-254 0-65 20-107 48-130 87-25 42-25 77 1 128 41 82 135 134 244 134 27 0 48 2 48 4 0 2-7 15-16 27-18 24-21 46-12 81 7 21 7 21-31 21-103 1-191 90-191 194 0 54 24 102 72 145 63 57 100 66 279 66l153 1-27-27z m242-43l0-63 63 0 62 0 0-27 0-27-62 0-63 0 0-63 0-62-27 0-28 0 0 62 0 63-62 0-63 0 0 27 0 27 63 0 62 0 0 63 0 62 28 0 27 0 0-62z m-229-41c-2-6-4-4-4 5-1 9 1 13 3 10 3-2 4-9 1-15z m-343 60c-33-18-53-64-53-121 0-66 13-104 49-144 54-62 132-75 179-30 68 65 34 235-59 292-29 18-85 19-116 3z m88-46c35-18 63-74 69-133 4-67-9-90-55-90-27 0-37 5-61 30-50 53-61 144-23 185 21 22 38 24 70 8z m-67-472c-103-27-160-118-125-199 14-35 68-80 110-91 54-16 158-7 204 16 47 24 73 70 73 125 0 44-23 76-84 120-39 27-49 31-99 33-30 1-65 0-79-4z m158-80c49-37 60-55 54-89-17-92-217-111-280-27-31 42-14 96 40 128 64 36 127 32 186-12z" horiz-adv-x="1000" />

<glyph glyph-name="heart-empty" unicode="&#xe805;" d="M929 517q0 46-12 80t-31 55-46 33-52 18-55 4-62-14-62-36-48-40-34-34q-10-13-27-13t-27 13q-14 15-34 34t-48 40-62 36-62 14-55-4-52-18-46-33-31-55-12-80q0-93 105-198l324-312 324 312q105 105 105 198z m71 0q0-123-128-251l-347-335q-10-10-25-10t-25 10l-348 336q-5 5-15 15t-31 37-38 54-30 67-13 77q0 123 71 192t196 70q34 0 70-12t67-33 54-38 42-38q20 20 42 38t54 38 67 33 70 12q125 0 196-70t71-192z" horiz-adv-x="1000" />

<glyph glyph-name="inspection" unicode="&#xe806;" d="M200 736c0-77-9-86-86-86l-85 0 0-271 0-272 174 0c146 0 188-11 263-74 74-63 108-72 220-60 103 11 140 3 191-46 86-77 123-40 43 46-49 51-57 86-43 183 12 85 3 143-31 191-26 40-46 123-46 189 0 108-6 114-86 114-77 0-85 9-85 86l0 85-215 0-214 0 0-85z m371-32c0-45-22-54-157-54-134 0-157 9-157 51 0 75 9 78 169 69 120-9 145-20 145-66z m172-180c0-60-12-68-100-65-117 2-232-89-257-212-17-77-29-83-157-83l-138 0-11 203c-6 112-3 209 3 214 6 6 157 12 337 12 323 0 323 0 323-69z m11-163c92-71 100-200 15-285-132-132-386 20-323 194 25 74 128 151 200 151 17 0 65-25 108-60z" horiz-adv-x="1000" />

<glyph glyph-name="instagram" unicode="&#xe807;" d="M150 831c-50-16-91-48-120-93l-26-40 0-348 0-348 26-40c29-46 70-77 123-93 54-17 640-17 694 0 53 16 94 47 123 93l26 40 0 348 0 348-26 40c-29 46-70 77-123 93-52 16-646 15-697 0z m681-52c36-10 79-47 100-86 11-24 14-46 14-120l0-90-139 0c-138 0-141 1-183 22-37 18-49 21-123 21-74 0-86-3-123-21-42-21-45-22-182-22l-140 0 0 90c0 100 8 129 53 170 44 42 57 44 388 45 190 0 316-4 335-9z m-227-331c83-39 138-138 128-224-23-197-254-283-394-146-46 45-68 99-68 167 0 172 178 280 334 203z m-359-73c-49-95-43-205 17-294 111-168 365-168 476 0 60 89 66 199 18 294l-28 53 109 0 108 0 0-195c0-179-1-199-14-226-21-39-64-76-100-86-40-12-622-12-661 0-37 10-80 47-100 86-14 27-15 47-15 226l0 195 108 0 109 0-27-53z m472 331c-26-15-33-46-28-119 5-71 17-81 104-81 95 0 102 7 102 105 0 97-4 102-93 105-46 0-70-2-85-10z m125-96l3-49-52 0-51 0 0 45c0 25 3 49 6 52 3 3 25 5 49 3l43-2 2-49z m-419-218c-158-79-100-317 77-317 177 0 235 238 77 317-26 14-54 21-77 21-23 0-51-7-77-21z m118-45c15-6 36-22 47-35 29-35 34-70 15-114-40-91-165-91-206 0-19 44-14 79 15 114 36 43 82 55 129 35z" horiz-adv-x="1000" />

<glyph glyph-name="linkeid" unicode="&#xe808;" d="M74 838c-54-29-74-65-74-131 0-116 137-177 227-102 34 29 49 62 48 109-1 80-48 130-130 134-33 2-54-1-71-10z m120-60c33-28 37-91 8-123-48-51-121-34-147 34-16 43 18 98 66 108 20 4 56-6 73-19z m487-233c-18-4-50-15-68-26l-35-20 0 20 0 19-121 0-121 0 0-344 0-344 125 0 125 0 0 194c0 111 4 205 9 222 14 56 86 79 129 42l22-19 2-219 3-220 125 0 125 0-3 256c-3 277-4 287-47 351-28 41-63 68-106 81-42 12-125 15-164 7z m137-56c51-12 98-60 116-116 11-35 14-80 18-259l3-217-74 0-75 0-3 194c-2 174-4 196-18 224-21 41-56 61-110 60-61-1-96-20-120-69-19-37-20-43-22-224l-2-185-75 0-73 0 0 293 0 293 70 0 70 0 0-43c0-41 1-43 21-43 14 0 29 11 53 36 53 59 131 79 221 56z m-802-295l0-344 125 0 125 0 0 344 0 344-125 0-125 0 0-344z m195-4l0-293-74 0-74 0 0 293 0 293 74 0 74 0 0-293z" horiz-adv-x="1000" />

<glyph glyph-name="list" unicode="&#xe809;" d="M34 723c-39-14-48-87-15-120 25-25 83-23 106 3 45 57-20 144-91 117z m200-28c-20-39-20-42 10-70 20-22 76-25 365-25 188 0 352 5 366 9 33 13 33 94 0 107-14 4-181 9-373 9-332 0-352-2-368-30z m-207-284c-38-22-36-102 3-123 17-8 37-16 47-16 25 0 64 47 64 78 0 33-39 78-68 78-10 0-31-8-46-17z m217-23c-14-13-25-30-25-38 0-8 11-25 25-37 20-22 76-25 365-25 188 0 352 4 366 9 33 12 33 94 0 106-14 5-178 10-366 10-289 0-345-4-365-25z m-225-291c-33-33-24-106 17-120 69-27 134 61 89 117-23 26-81 28-106 3z m225-22c-30-28-30-31-10-70 16-28 36-30 368-30 192 0 359 5 373 9 33 13 33 94 0 107-14 4-178 9-366 9-289 0-345-3-365-25z" horiz-adv-x="1000" />

<glyph glyph-name="paper-plane" unicode="&#xe80c;" d="M481 585c-464-97-477-100-477-117 0-16 20-29 134-90 75-39 137-74 140-77 3-3 17-68 31-144 19-109 27-140 37-141 6-2 55 25 107 61l95 63 97-63c53-36 103-63 110-61 8 1 47 97 129 318 64 174 116 324 116 334 0 15-4 18-21 17-13-1-236-45-498-100z m285-5c-28-15-145-75-259-133l-207-106-107 57c-59 31-105 58-103 60 4 4 691 148 711 149 8 0-7-12-35-27z m163-1c-5-13-48-131-98-263-48-133-90-243-91-245-2-1-67 38-144 89l-140 92 235 173c129 96 237 174 240 174 3 1 3-8-2-20z m-198-72c-5-3-81-59-170-125l-162-119-21-68-21-68-16 89c-10 54-13 91-8 93 4 1 95 48 202 104 108 55 197 101 199 101 2 0 0-3-3-7z m-225-341c1 0-23-18-54-38-30-20-56-36-57-34-2 1 18 72 31 114 3 9 21 0 80-42z" horiz-adv-x="1000" />

<glyph glyph-name="purse" unicode="&#xe80d;" d="M429 704c-186-58-361-133-383-165-28-35-46-164-46-303 0-365 32-386 564-386 368 0 432 11 482 64 36 36 61 93 61 125 0 32 18 68 36 79 21 11 36 78 36 146 0 68-15 122-36 122-18 0-36 32-36 71 0 36-32 97-68 132-35 36-71 97-82 136-18 104-136 100-528-21z m475 25c32-79-8-93-222-90l-200 4 179 64c221 82 221 82 243 22z m125-243c10-50-11-65-90-65-150 0-196-46-182-182 11-110 22-121 147-132 117-11 135-21 125-89-11-75-29-79-436-89-279-8-439 3-472 32-53 43-75 532-25 582 15 11 225 18 472 14 396-11 450-18 461-71z m71-232c-11-86-29-100-143-111-128-11-136-7-136 96 0 107 8 111 147 111 136 0 143-4 132-96z" horiz-adv-x="1179" />

<glyph glyph-name="right-arrow" unicode="&#xe80e;" d="M219 820c-8-17-16-39-16-50 0-11 89-109 199-220l198-200-198-200c-110-111-199-209-199-220 0-47 35-80 83-80 44 0 78 30 280 231 164 166 231 244 231 269 0 25-67 103-231 269-202 201-236 231-280 231-34 0-56-9-67-30z" horiz-adv-x="1000" />

<glyph glyph-name="scales" unicode="&#xe80f;" d="M469 772c0-38-44-47-203-47-113 0-203-12-203-28 0-16 15-34 31-41 22-6 9-81-31-197-85-240-72-334 40-371 116-44 253 9 266 100 9 59-35 231-113 437-9 25 22 38 100 38l113 0 0-310 0-312-100-10c-78-6-106-25-113-78-9-69-3-72 244-72 247 0 253 3 244 72-6 53-35 72-110 78l-103 10 0 312 0 310 113 0c78 0 109-13 100-38-78-206-122-378-113-437 13-91 150-144 269-100 109 37 122 131 38 371-41 116-54 191-32 197 16 7 32 25 32 41 0 16-91 28-204 28-159 0-203 9-203 47 0 25-12 47-31 47-16 0-31-22-31-47z m-238-341c10-40 28-97 38-125 15-40-3-50-81-50-79 0-97 10-82 50 10 28 28 85 38 125 25 97 62 97 87 0z m625 0c10-40 28-97 38-125 15-40-3-50-81-50-79 0-97 10-82 50 10 28 28 85 38 125 25 97 62 97 87 0z" horiz-adv-x="1000" />

<glyph glyph-name="search" unicode="&#xe810;" d="M319 841c-56-13-136-60-184-107-79-79-119-177-119-290 0-110 41-208 121-286 125-123 308-152 461-77l54 27 125-130c117-120 127-129 154-128 34 0 53 19 53 54 0 21-16 42-121 152-66 69-121 128-121 131 0 3 13 26 28 51 42 68 54 118 53 214 0 92-10 131-54 204-53 87-138 153-237 182-46 13-164 15-213 3z m222-130c229-106 227-423-2-532-37-17-53-20-117-20-64 0-81 3-119 21-122 57-193 186-170 312 35 193 235 300 408 219z" horiz-adv-x="1000" />

<glyph glyph-name="sewing-machine" unicode="&#xe811;" d="M527 803c-14-17-27-48-27-70 0-39 0-39-155-39-123 0-156 4-164 23-4 13-18 24-33 24-12 0-23-11-23-24 0-12-9-23-22-23-11 0-39-14-62-33-39-31-41-38-41-203 0-160 2-170 31-170 21 0 32-11 32-32 0-20 10-31 31-31 17 0 31-11 31-23 0-16-16-24-44-24-70 0-81-25-81-175l0-137 466 3 464 4 4 230c4 219 7 231 35 231 28 0 31 11 31 133 0 121-3 133-30 133-17 0-51 22-76 47-33 31-63 47-96 47-39 0-48 6-48 36-2 18-16 51-33 72l-31 37-33-36-34-36-22 33c-28 42-36 42-70 3z m323-197c20-20 25-72 25-320l0-295-416 0-414 0 5 57 5 60 258 5c181 3 259 9 268 23 7 9 13 70 13 133 0 150-24 175-163 175-122 0-148-10-167-56-12-35-22-38-116-38l-101 0 0 106c0 182-16 175 414 175 311 0 369-3 389-25z m98-189c-3-25-6-4-6 42 0 47 3 68 6 44 4-25 4-62 0-86z m-420-140l5-99-174 0c-136 0-171 5-171 22 0 11 14 25 31 30 17 4 31 18 31 33 0 14 13 25 31 25 22 0 32 10 32 35 0 54 12 60 117 55l93-5 5-96z m149-344c-113-3-304-3-422 0-119 1-25 4 206 4 233 0 330-3 216-4z m-557 664c-20-11-26-36-26-106 0-77 4-96 31-110 22-12 41-12 63 0 25 14 31 33 31 99 0 45-6 89-13 98-17 27-58 36-86 19z m314 6c-53-11-56-119-4-137 39-16 101 7 103 37 0 22 5 20 25-8 44-65 145-39 145 36 0 75-101 99-147 35-20-28-22-28-28 0-9 31-48 48-94 37z m43-65c4-8 1-16-7-16-9 0-17 8-17 16 0 9 3 15 6 15 5 0 13-6 18-15z m150-304c-11-12-18-42-14-67 4-42 7-44 103-48 115-6 151 14 136 73-7 22-19 46-29 52-34 22-178 14-196-10z m143-51c-20-3-51-3-70 0-20 3-5 6 34 6 39 0 55-3 36-6z" horiz-adv-x="1000" />

<glyph glyph-name="social" unicode="&#xe812;" d="M413 840c-63-24-115-81-132-150-14-48-11-183 4-236 15-52 43-100 74-125l20-16-22-24c-30-32-82-58-170-87-118-38-134-61-139-197l-3-92 22-5c33-9 42 11 42 89 0 85 13 114 57 130 18 6 60 20 93 31 65 23 126 61 158 99 21 24 24 25 82 25l61 0 30-32c34-38 90-71 160-95 116-39 116-39 128-66 9-18 13-48 13-92 0-78 9-98 41-89 21 4 21 5 21 81 0 141-22 175-137 212-92 30-141 55-171 87l-24 25 20 16c57 48 86 131 87 247 0 45-4 97-8 115-14 49-55 105-98 131-34 21-45 24-109 26-47 1-82-1-100-8z m162-67c63-29 89-85 89-197 0-149-59-234-164-234-105 0-164 85-164 239 0 78 8 111 37 151 40 52 134 72 202 41z m-41-760l-89-89-33 34c-35 33-50 40-67 23-18-19-9-42 36-87 31-30 52-44 64-44 25 0 219 191 219 216 0 18-14 34-31 34-6 0-52-40-99-87z" horiz-adv-x="1000" />

<glyph glyph-name="twitter" unicode="&#xe813;" d="M905 710l-68-34-31 21c-39 26-72 36-130 36-58 0-102-19-142-61-32-33-57-91-57-132 0-31-9-32-82-13-79 20-150 62-218 129-34 34-63 60-64 60 0-2-10-18-19-37-31-61-30-120 3-198 5-10 2-11-10-8-14 3-17 0-17-19 0-39 24-103 48-131 15-17 20-28 13-29-18-6 38-105 77-135 19-14 40-28 44-31 15-5-7-19-64-36-33-11-71-15-118-15-39 0-70-4-70-7 0-12 157-86 211-101 67-16 198-16 266 1 139 36 253 118 329 239 53 83 85 181 85 262 0 45 1 49 23 61 31 19 86 102 86 131 0 4-13 1-30-7l-30-16 19 47c10 26 18 49 16 52-2 3-33-10-70-29z m-144-41c9-5 24-16 34-24 13-12 23-14 46-11l30 5-23-18c-18-15-21-20-14-33 7-13 14-16 35-14l26 4-24-16c-22-15-23-20-24-71-5-209-149-400-351-467-81-26-215-30-289-6l-47 14 51 16c59 20 120 53 157 83l26 21-49 5c-27 3-60 11-74 18-26 13-68 49-68 58 0 3 17 8 38 10 21 2 50 9 65 16l26 10-55 14c-30 8-65 20-79 29-27 16-60 56-68 82-5 16-4 17 46 13 28-2 51-1 51 2 0 4-13 16-28 26-54 37-92 123-79 177l6 20 38-34c87-75 192-121 302-128l63-5-4 44c-7 91 45 161 131 177 29 5 77-2 105-17z" horiz-adv-x="1000" />

<glyph glyph-name="add" unicode="&#xe814;" d="M273 725l-128-124-68-1-69 0 0-35c0-32 1-35 19-35 11 0 20-3 20-6 0-4 14-93 30-199 33-206 43-235 85-256 15-8 62-12 157-14l135-3 8-21c23-65 76-124 140-159 30-16 46-18 117-18 75 0 86 2 123 22 54 28 101 76 126 130 17 37 20 53 20 114-1 82-17 125-66 178l-32 35 16 94c9 50 16 95 16 98 0 2 9 5 19 5 18 0 20 3 20 35l0 35-69 0-69 0-129 125c-71 69-133 125-137 125-9 0-54-46-48-48 1-2 49-47 105-102l102-100-234 0-234 0 103 98c56 54 102 103 102 108 0 11-33 44-44 44-3-1-64-56-136-125z m576-212c-2-11-8-46-14-79-8-57-10-61-26-57-9 4-44 8-78 10-81 4-139-16-194-67-39-36-84-114-84-146 0-8-2-23-5-33-4-18-6-18-126-16-119 2-121 2-135 22-10 13-21 69-39 184-13 90-26 171-28 182l-4 17 368 0 369 0-4-17z m-35-216c95-59 132-164 89-256-45-99-142-142-249-112-47 12-110 79-126 131-15 53-15 66 0 117 15 51 57 99 109 124 51 24 135 22 177-4z m-126-95l0-47-51 0-51 0 0-35 0-36 51 0 51 0 0-46 0-47 35 0 35 0 0 47 0 46 47 0 47 0 0 36 0 35-47 0-47 0 0 47 0 46-35 0-35 0 0-46z" horiz-adv-x="1000" />

<glyph glyph-name="avatar" unicode="&#xe815;" d="M391 830c-71-36-110-114-110-221 0-128 22-196 80-253 41-39 59-45 139-45 80 0 98 6 139 45 58 55 80 125 80 249 0 159-74 245-210 245-43 0-96-9-118-20z m200-82c79-67 84-229 7-320-48-58-135-64-189-15-43 42-70 145-57 228 18 129 145 186 239 107z m-372-489c-105-51-119-64-138-120-22-64-17-172 8-197 8-8 56-30 108-50 78-30 123-34 303-34 180 0 225 4 303 34 114 44 119 49 130 124 9 82-25 179-74 204-215 108-250 118-250 66 0-25 27-44 116-84 120-57 134-72 134-157 0-45-7-54-64-76-164-66-422-66-589 0-58 23-65 33-65 78 0 83 14 98 134 155 89 40 116 59 116 84 0 45-35 41-172-27z" horiz-adv-x="1000" />

<glyph glyph-name="blouse" unicode="&#xe817;" d="M340 838c-9-6-49-16-91-22-96-16-110-21-135-54l-20-27 0-254c0-151-3-256-7-256-11 0-19-44-13-71 5-22 14-28 75-56l70-32 0-72c0-40 3-75 8-78 4-2 7-18 7-36l0-30 266 0 266 0 0 30c0 18 4 34 7 36 5 3 8 38 8 78l0 72 70 32c62 28 70 34 75 56 6 27-2 71-13 71-4 0-7 105-7 256l0 254-20 27c-25 33-39 38-135 54-42 6-83 17-92 23-25 16-296 16-319-1z m237-29c-13-37-93-52-130-24-39 29-32 34 53 34 58 0 79-3 77-10z m-194-5c0-9-16-20-21-14-6 5 4 21 14 21 4 0 7-3 7-7z m256-8c2-6-1-9-7-7-5 2-12 8-13 13-3 7 1 10 7 7 5-1 12-7 13-13z m-308-30c32-61 92-96 169-96 77 0 138 35 170 96 10 20 14 22 36 18 13-2 42-7 65-10 24-2 44-7 46-11 2-3-2-30-10-59-9-38-19-59-35-74-14-14-22-28-22-43 0-25-2-26-144-25-56 0-65 0-106 0-41 0-50 0-105 0-66 0-75 0-110 1-33 2-35 3-35 24 0 15-8 29-22 43-15 15-26 37-36 75-7 29-11 55-8 58 4 4 90 21 122 24 8 0 19-9 25-21z m85-7c3-2 3-9 0-15-3-9-7-10-14-3-7 5-9 12-7 16 5 8 14 9 21 2z m189-2c2-4 0-11-7-16-7-7-11-6-14 3-7 17 11 29 21 13z m-421-138c7-11 18-22 24-24 9-4 11-37 11-203 0-109-3-198-6-198-4 0-25 8-47 17l-41 18 0 231c0 159 3 240 9 258l10 27 13-54c7-28 19-61 27-72z m690-156l1-234-41-18c-22-9-43-17-46-17-4 0-7 89-7 197 0 188 1 198 16 207 20 13 35 43 48 99l10 47 10-24c7-16 9-86 9-257z m-390 258c0-12-27-16-34-5-6 10 3 17 20 17 8 0 14-6 14-12z m67 0c0-4-8-8-17-10-13-2-18 2-18 10 0 9 5 12 18 10 9-1 17-5 17-10z m-231-198c11-3 32-3 48 1 16 4 39 4 55 0 16-4 36-4 52 0 16 6 34 6 51 0 15-4 35-4 51 0 17 4 39 4 55 0 16-4 39-4 55-1 29 8 63 3 63-9 0-5-4-8-9-8-18 0-38-25-38-48 0-19-2-21-13-15-8 4-37 7-65 7-28 0-57-3-64-7-12-6-14-4-14 13 0 64-95 68-97 5-1-25-7-32-16-18-7 11-107 8-126-3-15-9-17-9-13 8 4 22-17 58-33 58-6 0-12 3-12 7 0 15 34 20 70 10z m-64-81c-3-5-4-1-4 10 0 11 1 14 4 10 1-6 1-15 0-20z m252 0c0-40-13-52-17-17-5 33-3 42 10 42 4 0 7-11 7-25z m240-15c-2-11-3-4-3 13-1 17 0 25 3 18 1-8 1-22 0-31z m-396-23c0-7-46-31-61-31-10 0 40 39 51 40 5 0 10-4 10-9z m79-8c13-9 21-18 20-20-6-6-60 19-60 28 0 13 15 10 40-8z m171 6c0-5-12-14-26-19-38-13-41-12-16 10 24 21 42 25 42 9z m81-6c12-9 19-18 18-19-6-7-61 21-56 28 7 11 14 9 38-9z m-295-55c-12-7-36-1-36 9 0 11 18 14 34 6 13-7 13-8 2-15z m120 9c0-4-3-8-8-8-4 0-8 4-8 8 0 5 4 8 8 8 5 0 8-3 8-8z m136 1c6-10-16-17-31-12-15 6-7 19 12 19 8 0 16-3 19-7z m-296-49c4-4 4-9 0-14-5-4-18 1-35 16l-28 23 28-9c14-5 30-12 35-16z m85 0c-24-20-34-22-35-11-2 8 49 36 54 31 2-2-7-11-19-20z m167-2c6-5 7-10 2-15-7-7-54 23-54 35-1 7 36-7 52-20z m88 4c-26-22-43-25-37-6 2 7 44 26 60 28 2 0-9-10-23-22z m-180-44c0-26-12-44-17-26-6 15 3 61 10 57 4-3 7-16 7-31z m240-17c-3-8-4-2-4 13 0 15 1 21 4 14 1-7 1-20 0-27z m-492 0c-3-8-4-3-4 9 0 14 1 19 4 14 1-5 1-16 0-23z m101 4c8 5 20 5 32 1 13-6 26-4 42 4l22 11 0-26c0-31 16-46 49-46 28 0 45 19 45 50 0 22 1 22 23 11 15-8 28-10 41-4 12 4 24 4 32-1 9-5 21-4 37 5 23 11 23 11 23-11 0-23 5-30 35-50 14-10 14-11-3-21-14-7-22-7-40 0-13 6-34 7-48 5-14-3-34-5-43-5-16 1-52 1-104 1-52 0-88 0-103-1-10 0-30 2-44 5-14 2-35 1-47-5-18-7-27-7-41 0l-17 10 25 19c17 14 24 26 24 42 0 22 0 22 23 11 16-9 28-10 37-5z m-232-77c0-8-3-15-8-15-4 0-8 9-8 20 0 11 4 18 8 15 5-2 8-12 8-20z m766 4c0-11-3-19-8-19-9 0-11 26-2 33 8 9 10 7 10-14z m-719-24c0-11-3-18-8-15-4 3-8 12-8 21 0 7 4 14 8 14 5 0 8-9 8-20z m672 6c0-9-3-18-8-21-5-3-8 4-8 15 0 11 4 20 8 20 5 0 8-7 8-14z m-625-29c0-11-3-18-8-15-4 2-8 13-8 24 0 11 3 17 8 15 5-3 8-13 8-24z m571-14c-6-6-9-3-9 11 0 26 11 37 14 15 2-9 0-21-5-26z m-388 18c14 1 33 1 46 1 11 0 35 0 52 0 17 0 42 0 55 0 13 0 36 0 51 0 58 0 86 0 115-1l29-2 0-92 0-93-250 0-250 0 0 94 0 95 19-5c10-2 27-1 37 3 10 4 31 6 46 3 14-3 38-4 50-3z m-105-234c0-10-6-16-16-16-10 0-15 6-15 16 0 10 5 15 15 15 10 0 16-5 16-15z m62 0c0-10-5-16-15-16-10 0-16 6-16 16 0 10 6 15 16 15 10 0 15-5 15-15z m63 0c0-10-6-16-16-16-10 0-15 6-15 16 0 10 5 15 15 15 10 0 16-5 16-15z m62 0c0-10-5-16-15-16-10 0-16 6-16 16 0 10 6 15 16 15 10 0 15-5 15-15z m63 0c0-10-6-16-16-16-10 0-15 6-15 16 0 10 5 15 15 15 10 0 16-5 16-15z m62 0c0-10-5-16-15-16-10 0-16 6-16 16 0 10 6 15 16 15 10 0 15-5 15-15z m63 0c0-10-6-16-16-16-10 0-15 6-15 16 0 10 5 15 15 15 10 0 16-5 16-15z m62 0c0-10-5-16-15-16-10 0-16 6-16 16 0 10 6 15 16 15 10 0 15-5 15-15z" horiz-adv-x="1000" />
</font>
</defs>
</svg>
